<svg id="Layer_1" data-name="Layer 1" xmlns="http://www.w3.org/2000/svg" viewBox="0 0 185.8925 202.6008">
  <g>
    <path id="fullLogo" d="M76.3388,69.573c2.3982,3.8208,4.718,7.6832,7.04,11.5456l3.4536,5.7282a.6687.6687,0,0,0,.8058.334.682.682,0,0,0,.5347-.7214l.1284-6.7978c.0513-3.0318.1346-6.0589.2163-9.0849a.499.499,0,0,0-.1-.3135L81.05,60.4589a1.5159,1.5159,0,0,1,2.1225-2.1225l4.7955,3.6016a.5016.5016,0,0,0,.8025-.3849c.0666-2.0352.1356-4.0289.2112-5.9526a.497.497,0,0,0-.1-.3193L79.2752,42.4976a1.6972,1.6972,0,0,1,2.3764-2.3763l7.0021,5.2622a.5012.5012,0,0,0,.801-.3759c.3512-6.8173.7666-13.0667,1.2688-19.1141a2.1371,2.1371,0,0,1,4.2593,0c.5046,6.05.92,12.3,1.2692,19.1186a.5011.5011,0,0,0,.8009.376l7.01-5.2674a1.6972,1.6972,0,0,1,2.3764,2.3763L96.8272,55.2884a.4979.4979,0,0,0-.1.319c.0739,1.9324.1444,3.9357.2115,5.9822a.5016.5016,0,0,0,.8025.3849l4.8406-3.6381a1.5159,1.5159,0,0,1,2.1225,2.1225l-7.4133,9.8672a.5.5,0,0,0-.1.3137c.0818,3.0377.1674,6.0743.2187,9.1133l.1284,6.74a.6658.6658,0,0,0,.53.6881.6818.6818,0,0,0,.8224-.3625l3.4369-5.7c2.3222-3.8624,4.64-7.7248,7.04-11.5408q5.0709-8.2191,10.2956-16.3508a3.0155,3.0155,0,0,0,.4811-1.5921h0A63.9124,63.9124,0,0,0,94.8458.6694a3.2968,3.2968,0,0,0-3.9826,0A63.8962,63.8962,0,0,0,65.5669,51.6349v.0034a3.015,3.015,0,0,0,.4811,1.5924Q71.2845,61.3535,76.3388,69.573Z" style="fill: #abcb37"/>
    <path id="fullLogo-2" data-name="fullLogo" d="M185.7028,55.5619a3.2958,3.2958,0,0,0-1.9815-3.4528,63.8985,63.8985,0,0,0-56.7959,3.4054h0a3.0384,3.0384,0,0,0-1.1467,1.2161q-4.4415,8.5813-9.0571,17.0524c-2.1214,3.98-4.3176,7.9149-6.5126,11.85l-3.2527,5.8447a.6677.6677,0,0,0,.1105.8646.681.681,0,0,0,.8925.1052l5.9612-3.2694c2.6551-1.4628,5.3228-2.897,7.9885-4.3318a.5.5,0,0,0,.2222-.2427l4.8406-11.2672a1.5161,1.5161,0,0,1,2.8974.7855l-.74,5.95a.5017.5017,0,0,0,.7331.5048c1.7992-.9544,3.5635-1.8857,5.2695-2.7778a.4978.4978,0,0,0,.2271-.2455l6.3122-14.6919a1.6973,1.6973,0,0,1,3.2437.88l-1.0826,8.6929a.5011.5011,0,0,0,.7245.5079c6.09-3.0877,11.7174-5.8357,17.2137-8.4072a2.1372,2.1372,0,0,1,2.1189,3.6949c-4.9974,3.4464-10.2132,6.9156-15.9549,10.61a.5011.5011,0,0,0,.0722.8818l8.0554,3.4606a1.6973,1.6973,0,0,1-.88,3.2437L139.3048,84.45a.498.498,0,0,0-.3266.072c-1.6395,1.0264-3.3425,2.0837-5.0839,3.1594a.5015.5015,0,0,0,.0652.8876l5.5633,2.3907a1.5159,1.5159,0,0,1-.7844,2.8974l-12.2473-1.5235a.5.5,0,0,0-.3218.0692c-2.5945,1.582-5.1872,3.1668-7.7982,4.7218l-5.7817,3.4649a.6641.6641,0,0,0-.3339.8022.6818.6818,0,0,0,.7237.5324l41.6056,0a3.5826,3.5826,0,0,0,1.9173-.5587A63.8825,63.8825,0,0,0,185.7028,55.5619ZM108.54,88.7412l-.751,1.3809c-.2829.5241-.5729,1.0458-.8581,1.57a.7892.7892,0,0,1,.0571-.16l1.552-2.8094Z" style="fill: #4bbdce"/>
    <path id="fullLogo-3" data-name="fullLogo" d="M73.4758,101.392a.6641.6641,0,0,0-.3339-.8022L67.36,97.1249c-2.6119-1.5549-5.2033-3.1395-7.7976-4.7214a.5017.5017,0,0,0-.3231-.0695L46.9929,93.8574a1.5162,1.5162,0,0,1-.7856-2.8974l5.5643-2.3906a.5015.5015,0,0,0,.0651-.8876c-1.7422-1.0757-3.4452-2.1331-5.0848-3.1595a.498.498,0,0,0-.3266-.072L30.5484,86.4264a1.6972,1.6972,0,0,1-.88-3.2437l8.056-3.4606a.5012.5012,0,0,0,.0722-.8819C32.0554,75.1456,26.84,71.6764,21.8422,68.23A2.1369,2.1369,0,0,1,23.96,64.5352c5.4974,2.5715,11.1251,5.3195,17.2137,8.4071a.5011.5011,0,0,0,.7245-.5078l-1.0819-8.6934a1.6972,1.6972,0,0,1,3.2437-.88l6.3114,14.6922a.498.498,0,0,0,.2272.2455c1.706.8922,3.47,1.8234,5.27,2.7779a.5017.5017,0,0,0,.7331-.5047l-.7392-5.95a1.5154,1.5154,0,0,1,2.8962-.7855L63.5989,84.604a.5.5,0,0,0,.2223.2427c2.6668,1.4348,5.3334,2.869,7.9885,4.3318l5.9623,3.2694a.68.68,0,0,0,.8913-.1052.6693.6693,0,0,0,.1118-.8646l-3.2528-5.8447c-2.195-3.9355-4.3912-7.87-6.5138-11.85q-4.5973-8.4663-9.056-17.0523a3.0364,3.0364,0,0,0-1.1466-1.2162h0a63.9006,63.9006,0,0,0-56.797-3.4054A3.2958,3.2958,0,0,0,.0273,55.5619,63.8807,63.8807,0,0,0,29.2294,101.366a3.5827,3.5827,0,0,0,1.9168.5585l41.6047,0A.6831.6831,0,0,0,73.4758,101.392Z" style="fill: #f5a91c"/>
    <path id="fullLogo-4" data-name="fullLogo" d="M8.9672,168.1608l8.7317,12.4322h.5235l-.1243-12.4322h5.1776v16.6847h-8.83L5.6655,172.4134h-.55L5.24,184.8455H.0623V168.1608Z" style="fill: #fff"/>
    <path id="fullLogo-5" data-name="fullLogo" d="M37.8791,168.1608v16.6847H32.5509V168.1608Z" style="fill: #fff"/>
    <path id="fullLogo-6" data-name="fullLogo" d="M63.0443,182.0189H52.013l-1.4278,2.8266H44.7824l8.8315-16.6847h7.9028l8.7317,16.6847H64.47ZM58.04,172.0381h-1l-3.2263,6.3286h7.4547Z" style="fill: #fff"/>
    <path id="fullLogo-7" data-name="fullLogo" d="M97.067,175.39v.45c0,1.6509-.1018,4.5026-.1752,5.303a3.6759,3.6759,0,0,1-3.2772,3.5021,39.2171,39.2171,0,0,1-7.98.45c-5.7275,0-7.5036-.2252-8.9049-1.1756a3.9994,3.9994,0,0,1-1.6009-3.1769,43.6822,43.6822,0,0,1-.1507-4.5026c0-4.5275.4256-6.1786,1.827-7.1541,1.2-.8505,3.8515-1.1756,9.7053-1.1756,6.2041,0,8.5057.4252,9.6055,1.7259.7007.8254.9,1.8511.9247,4.3025H91.9628c-.0244-.9756-.0754-1.1758-.3992-1.4008-.5011-.35-1.6763-.45-5.479-.45-6.0024,0-6.0289.0251-6.0289,4.3525,0,2.8266.1507,3.6772.7007,4.1273.4012.3253.8513.4253,2.2017.4754l3.0776.05c4.3262,0,5.2529-.075,5.7275-.5.275-.2751.35-.5752.35-1.876H85.4349V175.39Z" style="fill: #fff"/>
    <path id="fullLogo-8" data-name="fullLogo" d="M121.1376,182.0189H110.1063l-1.4278,2.8266h-5.8028l8.8315-16.6847H119.61l8.7317,16.6847h-5.7784Zm-5.0044-9.9808h-1l-3.2263,6.3286h7.4547Z" style="fill: #fff"/>
    <path id="fullLogo-9" data-name="fullLogo" d="M133.6089,168.1608h12.2819c5.7539,0,5.7539,0,6.8293.65,1.2751.7754,1.6519,1.876,1.6519,4.7777,0,2.4264-.2505,3.3519-1.0754,4.0523a3.6614,3.6614,0,0,1-2.0267.75c2.5766.3,3.0267,1.0506,2.9269,4.9028v1.5509h-5.0044V183.97c0-1.876-.1-2.4764-.499-2.9017-.35-.4-.7251-.45-2.8271-.45h-7.18v4.2274h-5.0777Zm12.233,8.28c2.5012-.05,2.5012-.05,2.8515-.25.45-.2751.6008-.75.6008-1.8511s-.1751-1.576-.6762-1.801c-.3747-.1752-.4257-.1752-2.7761-.2h-7.1553v4.1023Z" style="fill: #fff"/>
    <path id="fullLogo-10" data-name="fullLogo" d="M178.4514,182.0189H167.42l-1.4278,2.8266H160.19l8.8316-16.6847h7.9027l8.7318,16.6847h-5.7784Zm-5.0044-9.9808h-1l-3.2263,6.3286h7.4547Z" style="fill: #fff"/>
    <path id="fullLogo-11" data-name="fullLogo" d="M58.84,131.83v1.1982c0,4.3934-.2662,11.982-.4656,14.1121-.5326,5.1922-3.3947,8.2543-8.72,9.3193-4.5276.932-9.2536,1.1982-21.2356,1.1982-15.244,0-19.97-.5991-23.6977-3.1286-2.4632-1.6642-3.7277-4.1271-4.26-8.454a116.2664,116.2664,0,0,1-.3988-11.982c0-12.0485,1.1308-16.4419,4.8585-19.038,3.1952-2.2633,10.2518-3.1286,25.8279-3.1286,16.5085,0,22.6337,1.1316,25.5616,4.5931,1.8649,2.1967,2.3975,4.9259,2.4632,11.4494H45.2607c-.0668-2.5961-.1994-3.1286-1.065-3.7277-1.3313-.9319-4.46-1.1982-14.5778-1.1982-15.976,0-16.0429.0666-16.0429,11.5826,0,7.522.3989,9.7853,1.8639,10.9835,1.0651.8653,2.2627,1.1316,5.8579,1.2647l8.1874.1332c11.5163,0,13.98-.2,15.244-1.3314.732-.7322.9314-1.531.9314-4.9925H27.8866V131.83Z" style="fill: #fff"/>
    <path id="fullLogo-12" data-name="fullLogo" d="M124.7441,131.83v1.1982c0,4.3934-.2663,11.982-.4657,14.1121-.5325,5.1922-3.3957,8.2543-8.7211,9.3193-4.5254.932-9.2525,1.1982-21.2344,1.1982-15.243,0-19.97-.5991-23.6978-3.1286-2.4632-1.6642-3.7277-4.1271-4.26-8.454a116.2275,116.2275,0,0,1-.3989-11.982c0-12.0485,1.1308-16.4419,4.8586-19.038,3.1952-2.2633,10.2518-3.1286,25.8289-3.1286,16.5085,0,22.6316,1.1316,25.5616,4.5931,1.8627,2.1967,2.3953,4.9259,2.4621,11.4494H111.1645c-.0669-2.5961-.1994-3.1286-1.0651-3.7277-1.3313-.9319-4.46-1.1982-14.5778-1.1982-15.976,0-16.0428.0666-16.0428,11.5826,0,7.522.3988,9.7853,1.8638,10.9835,1.0651.8653,2.2627,1.1316,5.8579,1.2647l8.1874.1332c11.5163,0,13.98-.2,15.244-1.3314.732-.7322.9325-1.531.9325-4.9925H93.79V131.83Z" style="fill: #fff"/>
    <path id="fullLogo-13" data-name="fullLogo" d="M144.4511,142.2811c0,2.6627.2663,3.5281,1.3314,4.1937,1.2645.7988,2.73.932,12.2482.932,14.5121,0,14.5121,0,14.5121-3.9275,0-2.6626-.9993-3.3283-5.3253-3.3949-1.5319,0-5.9247-.2-10.6507-.3994-4.9265-.2662-9.32-.4659-10.7843-.4659-6.4573-.2-9.5856-1.1317-11.5821-3.3949-1.6644-1.997-2.4632-4.8594-2.4632-9.3194,0-6.59,1.5307-10.584,4.6591-12.3148,3.4615-1.8638,7.3229-2.2632,23.3657-2.2632,12.3808,0,17.0411.5991,20.2363,2.4629,2.862,1.7973,4.06,4.66,4.06,10.1182,0,.2662,0,1.1982-.0669,2.0635H170.9452c-.0668-2.1967-.2674-2.7958-.9993-3.4614-1.0651-.8654-2.5959-.9985-12.7808-.9985-11.3826,0-12.314.2662-12.314,3.528,0,1.5976.5983,2.4629,1.8627,2.8623,1.1988.3329,4.66.5326,14.3784.7988,14.3127.3994,17.3085.7988,20.1037,2.463,3.262,1.93,4.46,4.9925,4.46,11.3163,0,7.5221-1.73,11.3164-6.0573,13.0471-2.73,1.1982-8.0548,1.531-21.9007,1.531-13.3133,0-18.7712-.5991-21.9664-2.3964-3.3289-1.8638-4.394-4.5265-4.394-10.85v-2.13Z" style="fill: #fff"/>
    <path id="fullLogo-14" data-name="fullLogo" d="M20.0894,196.2719v4.6461H24.52v1.5892H18.0981v-6.2353Z" style="fill: #4bbdce"/>
    <path id="fullLogo-15" data-name="fullLogo" d="M34.1925,201.4509H30.0692l-.5328,1.0563H27.3678l3.3-6.2353h2.9541l3.2632,6.2353h-2.16Zm-1.87-3.73h-.3738l-1.2057,2.3651h2.7859Z" style="fill: #4bbdce"/>
    <path id="fullLogo-16" data-name="fullLogo" d="M43.1165,196.2719,46.38,200.918h.1956l-.0464-4.6461h1.9349v6.2353h-3.3l-3.2814-4.646h-.2056l.0465,4.646H39.7887v-6.2353Z" style="fill: #4bbdce"/>
    <path id="fullLogo-17" data-name="fullLogo" d="M51.9569,196.2719h4.4962a9.743,9.743,0,0,1,2.3376.1216,1.4934,1.4934,0,0,1,1.2149,1.0564,5.6266,5.6266,0,0,1,.1781,1.8509c0,1.6266-.1408,2.2623-.5983,2.6829-.4773.43-1.0284.5235-3.1323.5235H51.9569Zm4.5153,4.6461c1.72,0,1.8413-.0934,1.8413-1.5051,0-.7665-.0655-1.1124-.252-1.318-.1964-.2244-.4491-.2618-1.6084-.2618H53.8263v3.0849Z" style="fill: #4bbdce"/>
    <path id="fullLogo-18" data-name="fullLogo" d="M65.1724,200.4413c0,.3739.0373.4954.1865.589.1781.112.3837.1308,1.72.1308,2.0384,0,2.0384,0,2.0384-.5516,0-.3739-.1408-.4673-.7482-.4767-.2147,0-.832-.028-1.4957-.0561-.6919-.0374-1.3085-.0655-1.5148-.0655-.9065-.0279-1.3457-.1589-1.6258-.4767a1.96,1.96,0,0,1-.3464-1.3088c0-.9254.2154-1.4863.6546-1.7294.4857-.2617,1.0284-.3178,3.2815-.3178,1.7385,0,2.3931.0841,2.8414.3459.4019.2524.57.6543.57,1.4209,0,.0374,0,.1683-.0092.29H68.8931c-.0092-.3085-.0373-.3927-.14-.4861-.15-.1216-.3646-.14-1.7948-.14-1.5993,0-1.7294.0374-1.7294.4954a.3625.3625,0,0,0,.2611.402,14.5185,14.5185,0,0,0,2.0194.1122c2.01.056,2.43.1121,2.8232.3458.4582.2712.6264.7012.6264,1.5893,0,1.0563-.2428,1.5891-.851,1.8322a9.8969,9.8969,0,0,1-3.0751.2151c-1.8695,0-2.636-.0842-3.0851-.3367-.4674-.2616-.6173-.6356-.6173-1.5237v-.2991Z" style="fill: #4bbdce"/>
    <path id="fullLogo-19" data-name="fullLogo" d="M82.0988,200.1048c.0091.3551.0182.4954.0182.5888,0,.9817-.2519,1.44-.8974,1.6734a8.72,8.72,0,0,1-2.6268.2338c-2.3741,0-3.16-.0748-3.6735-.3367a1.4135,1.4135,0,0,1-.7391-1.2993c-.0274-.28-.0373-.7947-.0373-1.5331a6.5721,6.5721,0,0,1,.1964-2.309c.3555-.7853,1.0474-.9442,4.2626-.9442a6.4678,6.4678,0,0,1,2.6177.2618c.57.271.7764.7291.7764,1.7574v.3085H80.0976c-.0182-.3646-.0373-.4487-.1119-.5516-.1119-.1589-.6356-.2149-1.9258-.2149-1.1874,0-1.533.0373-1.72.1869-.2238.187-.2992.5515-.2992,1.4957,0,1.5985.0282,1.6173,2.0286,1.6173,2.0849,0,2.113-.0093,2.1221-.9348Z" style="fill: #4bbdce"/>
    <path id="fullLogo-20" data-name="fullLogo" d="M91.631,201.4509H87.5077l-.5328,1.0563H84.8063l3.3-6.2353H91.06l3.2632,6.2353h-2.16Zm-1.87-3.73H89.387l-1.2057,2.3651h2.7859Z" style="fill: #4bbdce"/>
    <path id="fullLogo-21" data-name="fullLogo" d="M97.2272,196.2719H101.5a12.578,12.578,0,0,1,1.6266.0469c1.2339.1682,1.5795.6636,1.5795,2.29,0,1.3555-.2337,1.8978-.953,2.1782a6.2831,6.2831,0,0,1-2.2349.1962H99.1248v1.5238H97.2272Zm4.2725,3.15c.86-.0094.8974-.0094,1.0565-.0935.1865-.1028.2519-.271.2519-.72,0-.4393-.0746-.617-.3082-.71-.131-.0562-.15-.0562-1-.0655H99.1248v1.5892Z" style="fill: #4bbdce"/>
    <path id="fullLogo-22" data-name="fullLogo" d="M109.9373,196.2719v6.2353h-1.9912v-6.2353Z" style="fill: #4bbdce"/>
    <path id="fullLogo-23" data-name="fullLogo" d="M116.7643,196.2719l3.2625,4.6461h.1963l-.0464-4.6461h1.9349v6.2353h-3.3l-3.2814-4.646h-.2055l.0464,4.646h-1.9349v-6.2353Z" style="fill: #4bbdce"/>
    <path id="fullLogo-24" data-name="fullLogo" d="M133.7287,198.9736v.1683c0,.617-.0373,1.6827-.0654,1.9818a1.3737,1.3737,0,0,1-1.2248,1.3087,14.65,14.65,0,0,1-2.9823.1684c-2.14,0-2.8042-.0842-3.3278-.4394a1.4947,1.4947,0,0,1-.5983-1.1873,16.3171,16.3171,0,0,1-.0564-1.6827c0-1.692.1591-2.309.6828-2.6735.4484-.3179,1.4394-.4394,3.627-.4394,2.3186,0,3.1787.1589,3.59.645.2618.3085.3364.6918.3455,1.6079h-1.8976c-.0091-.3646-.0282-.4394-.1492-.5235-.1872-.1309-.6264-.1682-2.0475-.1682-2.2432,0-2.2531.0093-2.2531,1.6265,0,1.0564.0563,1.3742.2618,1.5425.15.1216.3182.1589.8228.1776l1.15.0187c1.6167,0,1.9631-.028,2.14-.187.1028-.1028.1309-.215.1309-.7011h-2.4959v-1.2433Z" style="fill: #4bbdce"/>
    <path id="fullLogo-25" data-name="fullLogo" d="M144.0579,196.2719v6.2353h-1.9912v-6.2353Z" style="fill: #4bbdce"/>
    <path id="fullLogo-26" data-name="fullLogo" d="M150.8849,196.2719l3.2624,4.6461h.1964l-.0464-4.6461h1.9349v6.2353h-3.3l-3.2814-4.646h-.2056l.0465,4.646h-1.9349v-6.2353Z" style="fill: #4bbdce"/>
    <path id="fullLogo-27" data-name="fullLogo" d="M167.56,200.1048c.0091.3551.0182.4954.0182.5888,0,.9817-.2519,1.44-.8974,1.6734a8.72,8.72,0,0,1-2.6268.2338c-2.3741,0-3.16-.0748-3.6735-.3367a1.4135,1.4135,0,0,1-.7391-1.2993c-.0274-.28-.0373-.7947-.0373-1.5331a6.5721,6.5721,0,0,1,.1964-2.309c.3555-.7853,1.0474-.9442,4.2626-.9442a6.4678,6.4678,0,0,1,2.6177.2618c.57.271.7764.7291.7764,1.7574v.3085h-1.8984c-.0183-.3646-.0373-.4487-.1119-.5516-.1119-.1589-.6356-.2149-1.9258-.2149-1.1874,0-1.533.0373-1.72.1869-.2238.187-.2992.5515-.2992,1.4957,0,1.5985.0282,1.6173,2.0286,1.6173,2.0848,0,2.113-.0093,2.1221-.9348Z" style="fill: #4bbdce"/>
    <path id="fullLogo-28" data-name="fullLogo" d="M172.9226,200.8526v1.6546h-1.9913v-1.6546Z" style="fill: #4bbdce"/>
  </g>
</svg>
